<mxfile host="65bd71144e">
    <diagram id="CXXSiYioIeRtVV1KvOWu" name="Page-1">
        <mxGraphModel dx="1640" dy="1134" grid="0" gridSize="10" guides="1" tooltips="1" connect="1" arrows="1" fold="1" page="1" pageScale="1" pageWidth="2336" pageHeight="1654" math="0" shadow="0">
            <root>
                <mxCell id="0"/>
                <mxCell id="1" parent="0"/>
                <mxCell id="2" value="order" style="swimlane;childLayout=stackLayout;resizeParent=1;resizeParentMax=0;horizontal=0;startSize=20;horizontalStack=0;fillColor=#60a917;strokeColor=#2D7600;fontColor=#ffffff;fontSize=13;" parent="1" vertex="1">
                    <mxGeometry x="83" y="80" width="2170" height="1031" as="geometry"/>
                </mxCell>
                <mxCell id="3" value="Customer" style="swimlane;startSize=20;horizontal=0;" parent="2" vertex="1">
                    <mxGeometry x="20" width="2150" height="200" as="geometry"/>
                </mxCell>
                <mxCell id="112" value="" style="edgeStyle=none;html=1;" parent="3" source="22" target="111" edge="1">
                    <mxGeometry relative="1" as="geometry"/>
                </mxCell>
                <mxCell id="22" value="&lt;font style=&quot;font-size: 18px&quot;&gt;شروع&lt;/font&gt;" style="ellipse;whiteSpace=wrap;html=1;aspect=fixed;fontSize=13;fillColor=#0050ef;strokeColor=#001DBC;fontColor=#ffffff;" parent="3" vertex="1">
                    <mxGeometry x="78" y="60" width="80" height="80" as="geometry"/>
                </mxCell>
                <mxCell id="114" value="" style="edgeStyle=none;html=1;fontSize=23;" parent="3" source="111" target="113" edge="1">
                    <mxGeometry relative="1" as="geometry"/>
                </mxCell>
                <mxCell id="111" value="&lt;font style=&quot;font-size: 23px&quot;&gt;درخواست فاکتور رسمی&lt;/font&gt;" style="whiteSpace=wrap;html=1;fontSize=13;fillColor=#60a917;strokeColor=#2D7600;fontColor=#ffffff;" parent="3" vertex="1">
                    <mxGeometry x="220" y="66" width="197" height="68" as="geometry"/>
                </mxCell>
                <mxCell id="113" value="&lt;span style=&quot;font-size: 23px&quot;&gt;وارد کردن مشخصات&amp;nbsp;&lt;/span&gt;" style="whiteSpace=wrap;html=1;fontSize=13;fillColor=#60a917;strokeColor=#2D7600;fontColor=#ffffff;" parent="3" vertex="1">
                    <mxGeometry x="497" y="66" width="197" height="68" as="geometry"/>
                </mxCell>
                <mxCell id="115" value="&lt;span style=&quot;font-size: 23px&quot;&gt;ثبت درخواست&amp;nbsp;&lt;/span&gt;" style="whiteSpace=wrap;html=1;fontSize=13;fillColor=#60a917;strokeColor=#2D7600;fontColor=#ffffff;" parent="3" vertex="1">
                    <mxGeometry x="763" y="66" width="197" height="68" as="geometry"/>
                </mxCell>
                <mxCell id="116" value="" style="edgeStyle=none;html=1;fontSize=23;" parent="3" source="113" target="115" edge="1">
                    <mxGeometry relative="1" as="geometry"/>
                </mxCell>
                <mxCell id="125" style="edgeStyle=none;html=1;exitX=1;exitY=0.5;exitDx=0;exitDy=0;entryX=0;entryY=0.5;entryDx=0;entryDy=0;fontSize=23;" parent="3" source="123" target="29" edge="1">
                    <mxGeometry relative="1" as="geometry"/>
                </mxCell>
                <mxCell id="123" value="&lt;span style=&quot;font-size: 23px&quot;&gt;دانلود فاکتور&amp;nbsp;&lt;/span&gt;" style="whiteSpace=wrap;html=1;fontSize=13;fillColor=#60a917;strokeColor=#2D7600;fontColor=#ffffff;" parent="3" vertex="1">
                    <mxGeometry x="1317" y="66" width="197" height="68" as="geometry"/>
                </mxCell>
                <mxCell id="29" value="&lt;font style=&quot;font-size: 23px&quot;&gt;پایان&lt;/font&gt;" style="ellipse;whiteSpace=wrap;html=1;fillColor=#0050ef;strokeColor=#001DBC;fontColor=#ffffff;" parent="3" vertex="1">
                    <mxGeometry x="1995" y="66" width="73" height="70" as="geometry"/>
                </mxCell>
                <mxCell id="20" value="Postex" style="swimlane;startSize=20;horizontal=0;fillColor=#60a917;strokeColor=#2D7600;fontColor=#ffffff;" parent="2" vertex="1">
                    <mxGeometry x="20" y="200" width="2150" height="435" as="geometry"/>
                </mxCell>
                <mxCell id="117" value="&lt;span style=&quot;font-size: 23px&quot;&gt;ارسال تیکت برای بخش مالی&lt;/span&gt;" style="whiteSpace=wrap;html=1;fontSize=13;fillColor=#60a917;strokeColor=#2D7600;fontColor=#ffffff;" parent="20" vertex="1">
                    <mxGeometry x="763" y="76" width="197" height="68" as="geometry"/>
                </mxCell>
                <mxCell id="121" value="&lt;span style=&quot;font-size: 23px&quot;&gt;ایجاد فاکتور در پنل مشتری&lt;/span&gt;" style="whiteSpace=wrap;html=1;fontSize=13;fillColor=#60a917;strokeColor=#2D7600;fontColor=#ffffff;" parent="20" vertex="1">
                    <mxGeometry x="1317" y="71" width="197" height="68" as="geometry"/>
                </mxCell>
                <mxCell id="118" value="" style="edgeStyle=none;html=1;fontSize=23;" parent="2" source="115" target="117" edge="1">
                    <mxGeometry relative="1" as="geometry"/>
                </mxCell>
                <mxCell id="124" value="" style="edgeStyle=none;html=1;fontSize=23;" parent="2" source="121" target="123" edge="1">
                    <mxGeometry relative="1" as="geometry"/>
                </mxCell>
                <mxCell id="120" value="" style="edgeStyle=orthogonalEdgeStyle;html=1;fontSize=23;" parent="2" source="117" target="119" edge="1">
                    <mxGeometry relative="1" as="geometry"/>
                </mxCell>
                <mxCell id="128" style="edgeStyle=orthogonalEdgeStyle;html=1;exitX=1;exitY=0.5;exitDx=0;exitDy=0;fontSize=34;" edge="1" parent="2" source="126" target="121">
                    <mxGeometry relative="1" as="geometry"/>
                </mxCell>
                <mxCell id="58" value="Vendor" style="swimlane;startSize=20;horizontal=0;" parent="2" vertex="1">
                    <mxGeometry x="20" y="635" width="2150" height="396" as="geometry"/>
                </mxCell>
                <mxCell id="127" value="" style="edgeStyle=orthogonalEdgeStyle;html=1;" edge="1" parent="58" source="119" target="126">
                    <mxGeometry relative="1" as="geometry"/>
                </mxCell>
                <mxCell id="119" value="&lt;span style=&quot;font-size: 23px&quot;&gt;بررسی درخواست توسط مالی&lt;/span&gt;" style="whiteSpace=wrap;html=1;fontSize=13;fillColor=#60a917;strokeColor=#2D7600;fontColor=#ffffff;" parent="58" vertex="1">
                    <mxGeometry x="745.5" y="90" width="232" height="68" as="geometry"/>
                </mxCell>
                <mxCell id="131" value="" style="edgeStyle=orthogonalEdgeStyle;html=1;fontSize=34;" edge="1" parent="58" source="126" target="130">
                    <mxGeometry relative="1" as="geometry">
                        <Array as="points">
                            <mxPoint x="1167" y="215"/>
                            <mxPoint x="1402" y="215"/>
                            <mxPoint x="1402" y="220"/>
                        </Array>
                    </mxGeometry>
                </mxCell>
                <mxCell id="126" value="&lt;font style=&quot;font-size: 34px&quot;&gt;تایید مالی&lt;/font&gt;" style="rhombus;whiteSpace=wrap;html=1;fontSize=13;fillColor=#a20025;strokeColor=#6F0000;fontColor=#ffffff;" vertex="1" parent="58">
                    <mxGeometry x="1085" y="43" width="163.5" height="162" as="geometry"/>
                </mxCell>
                <mxCell id="130" value="&lt;font style=&quot;font-size: 31px&quot;&gt;رد درخواست&amp;nbsp;&lt;/font&gt;" style="whiteSpace=wrap;html=1;fontSize=13;fillColor=#60a917;strokeColor=#2D7600;fontColor=#ffffff;" vertex="1" parent="58">
                    <mxGeometry x="1582" y="180" width="208" height="87" as="geometry"/>
                </mxCell>
                <mxCell id="132" style="edgeStyle=orthogonalEdgeStyle;html=1;exitX=1;exitY=0.5;exitDx=0;exitDy=0;fontSize=31;" edge="1" parent="2" source="130" target="29">
                    <mxGeometry relative="1" as="geometry"/>
                </mxCell>
            </root>
        </mxGraphModel>
    </diagram>
</mxfile>